<svg width="100" height="22" viewBox="0 0 100 22" fill="none" xmlns="http://www.w3.org/2000/svg">
<path d="M11.5531 6.01162C11.219 4.23774 9.96666 3.35004 7.79607 3.35004C6.73154 3.35004 5.9018 3.56457 5.30698 3.99212C4.71204 4.42017 4.41469 4.93664 4.41469 5.54178C4.41469 6.14742 4.60744 6.6221 4.99384 6.96633C5.37985 7.31081 5.98015 7.6293 6.79409 7.9213L11.2087 9.64345C12.7116 10.228 13.87 10.9638 14.684 11.8505C15.4981 12.7382 15.905 13.8496 15.905 15.185C15.905 17.022 15.2163 18.4779 13.8386 19.5527C12.4611 20.6279 10.4989 21.165 7.95251 21.165C5.69835 21.165 3.8716 20.6123 2.47342 19.5055C0.907959 18.2952 0.08319 16.5835 0 14.3709H3.66318C3.66318 16.0411 4.5291 17.0949 6.26182 17.5332C6.78339 17.6797 7.47222 17.7525 8.32833 17.7525C9.18393 17.7525 9.97685 17.5385 10.7077 17.1105C11.4381 16.6829 11.8036 16.1086 11.8036 15.3886C11.8036 14.6685 11.605 14.1156 11.2087 13.7293C10.8119 13.3431 10.1648 12.9833 9.2675 12.649L5.22863 11.0522C3.66318 10.4471 2.46271 9.73722 1.62814 8.92315C0.793047 8.10908 0.375821 6.98187 0.375821 5.54178C0.375821 3.85096 1.03319 2.51558 2.34818 1.53437C3.68382 0.511882 5.49477 0 7.7804 0C10.0659 0 11.8295 0.527425 13.0716 1.58125C14.3132 2.63559 15.0284 4.11238 15.2163 6.01162H11.5531Z" fill="black"/>
<path d="M24.2329 0.407166H40.5136V3.60076H34.2205V20.7268H30.5259V3.60076H24.2329V0.407166Z" fill="black"/>
<path d="M49.7183 0.407166H53.4127V20.7268H49.7183V0.407166Z" fill="black"/>
<path d="M69.0357 17.5018H77.3952V20.7268H65.3413V0.407166H69.0357V17.5018Z" fill="black"/>
<path d="M86.4747 0.407166L90.9518 8.51625L95.6482 0.407166H100L92.7677 12.3359V20.7268H89.0732V12.3359L82.0913 0.407166H86.4747Z" fill="black"/>
</svg>
